<svg id="Capa_1" enable-background="new 0 0 497 497" height="512" viewBox="0 0 497 497" width="512" xmlns="http://www.w3.org/2000/svg"><g><path d="m248.5 292.288c-44.609 0-196.994 34.298-210.341 29.95 1.212 22.694 16.482 60.473 28.987 82.606 15.112 26.745 111.119 85.156 181.354 85.156 62.069 0 120.027-26.793 169.013-62.209 8.199-7.945 14.647-15.871 18.901-23.347 13.757-24.176 22.427-58.275 22.427-82.206 0 0-165.732-29.95-210.341-29.95z" fill="#d8e2f3"/><path d="m75.146 399.844c-12.506-22.134-20.599-49.117-21.811-71.811 0-14.947-15.177-5.795-15.177-5.795 0 23.774 8.401 57.559 21.987 81.606 22.646 40.078 107.92 93.156 188.355 93.156 65.094 0 133.486-34.781 169.013-69.209-48.084 28.07-106.944 54.209-169.013 54.209-70.235 0-158.242-55.411-173.354-82.156z" fill="#bacdea"/><path d="m48.159 322.238c0 1.892 5.072 3.833 5.177 5.795 13.347 4.348 34.412 9.554 58.83 9.554 41.922 0 91.725-40.299 136.335-40.299s94.412 40.299 136.335 40.299c41.922 0 74.006-15.349 74.006-15.349 0-71.343-91.84-159.345-173.127-203.025-13.257-74.093-22.621-119.213-37.215-119.213-3.774 16.242-16.958 44.12-30.214 118.213-81.287 43.679-170.127 138.015-170.127 204.025z" fill="#8aaadc"/><path d="m297.443 339.72c-2.285 0-4.542-1.041-6.015-3.012-2.479-3.318-1.798-8.018 1.521-10.497 2.22-1.658 3.442-3.658 3.442-5.63 0-1.973-1.223-3.973-3.442-5.631-3.318-2.479-3.999-7.179-1.521-10.497 2.479-3.319 7.18-4 10.497-1.521 6.016 4.494 9.466 10.926 9.466 17.648s-3.45 13.154-9.466 17.648c-1.346 1.006-2.92 1.492-4.482 1.492z" fill="#bacdea"/><path d="m199.557 339.72c-1.562 0-3.136-.485-4.482-1.492-6.016-4.494-9.466-10.926-9.466-17.648s3.45-13.155 9.466-17.648c3.317-2.478 8.019-1.799 10.497 1.521 2.479 3.318 1.798 8.018-1.521 10.497-2.22 1.658-3.442 3.658-3.442 5.631s1.223 3.972 3.442 5.63c3.318 2.479 3.999 7.179 1.521 10.497-1.473 1.971-3.73 3.012-6.015 3.012z" fill="#bacdea"/><path d="m53.159 322.238c0-59.674 89.44-152.394 168.071-193.599 4.18-2.19 11.011-.288 16.79 2.157 4.97 2.103 10.48-1.486 10.48-6.882v-123.914c-14.594 0-23.958 45.12-37.214 119.213-81.287 43.679-173.127 131.682-173.127 203.025 0 0 5.609 2.678 15.177 5.795-.105-1.962-.177-3.904-.177-5.795z" fill="#5a86cc"/><path d="m356.328 377.077c-23.701 6.181-58.378 13.943-107.828 13.943-49.458 0-84.138-7.764-107.839-13.946l-5.909 44.962 42.741-9.988s11.25 44.313 11.251 44.313l37.078-27.261 22.678 37.9 22.678-37.9 37.078 27.261 11.251-44.313 42.741 9.988z" fill="#664646"/><path d="m140.661 377.074c-15.672-4.088-26.546-7.483-33.707-7.483-1.619 0-3.807.662-6.191 1.663 6.809 17.745 18.308 35.481 33.988 50.782.005-.022 7.794-38.957 5.91-44.962zm249.385-7.483c-7.162 0-18.04 3.397-33.718 7.486-1.84 6.129 5.915 44.937 5.92 44.959 15.681-15.301 27.179-33.037 33.988-50.782-2.383-1.001-4.572-1.663-6.19-1.663zm-201.306 86.769c-21.328-8.059-39.456-20.143-53.988-34.323.02-.007 38.811-12.952 42.741-9.988 3.922 2.957 11.214 44.124 11.247 44.311zm130.767-44.312c-3.922 2.958-11.214 44.125-11.247 44.312 21.328-8.059 39.456-20.143 53.988-34.323-.021-.007-38.811-12.953-42.741-9.989zm-48.329 17.052c-4.818.952-22.678 37.9-22.678 37.9 21.989 0 41.982-3.923 59.756-10.638-.07-.062-32.266-28.212-37.078-27.262zm-45.356 0c-4.812-.95-37.008 27.2-37.078 27.261 17.774 6.716 37.767 10.639 59.756 10.639 0 0-17.86-36.948-22.678-37.9z" fill="#fff"/><path d="m154.088 325.556c-4.143 0-7.5-3.358-7.5-7.5v-30.774c0-4.142 3.357-7.5 7.5-7.5s7.5 3.358 7.5 7.5v30.774c0 4.142-3.358 7.5-7.5 7.5z" fill="#444145"/><path d="m248.5 398.52c-56.96 0-94.048-9.954-118.59-16.541-10.175-2.731-18.211-4.888-22.956-4.888-2.509.175-11.197 4.738-18.536 9.763-3.417 2.34-8.083 1.468-10.426-1.948-2.34-3.417-1.47-8.083 1.945-10.424 5.434-3.726 18.944-12.391 27.017-12.391 6.724 0 15.163 2.265 26.845 5.4 23.781 6.383 59.719 16.028 114.701 16.028s90.92-9.646 114.701-16.028c11.682-3.135 20.121-5.4 26.845-5.4 8.072 0 21.583 8.665 27.017 12.391 3.416 2.342 4.287 7.01 1.944 10.427-2.342 3.415-7.01 4.288-10.427 1.944-7.337-5.023-16.025-9.586-18.591-9.763-4.688.001-12.725 2.158-22.899 4.889-24.542 6.587-61.63 16.541-118.59 16.541z" fill="#bacdea"/><path d="m342.912 325.556c-4.143 0-7.5-3.358-7.5-7.5v-30.774c0-4.142 3.357-7.5 7.5-7.5s7.5 3.358 7.5 7.5v30.774c0 4.142-3.357 7.5-7.5 7.5z" fill="#444145"/><path d="m285.124 259.604c-.971 0-1.957-.189-2.908-.59-18.275-7.696-49.156-7.696-67.432 0-3.818 1.608-8.216-.184-9.823-4.001s.184-8.215 4.001-9.823c22.172-9.336 56.904-9.336 79.076 0 3.817 1.607 5.608 6.005 4.001 9.823-1.207 2.866-3.988 4.591-6.915 4.591z" fill="#5a86cc"/></g></svg>